<?xml version="1.0" encoding="UTF-8"?>
<svg width="1280px" height="1280px" viewBox="0 0 1280 1280" version="1.1" xmlns="http://www.w3.org/2000/svg" xmlns:xlink="http://www.w3.org/1999/xlink">
    <title>monetashi</title>
    <g id="monetashi" stroke="none" stroke-width="1" fill="none" fill-rule="evenodd">
        <g id="Group" transform="translate(41.000000, 79.000000)" fill="#09FF00">
            <g id="Bitmap" transform="translate(0.000000, 0.000000)">
                <path d="M554.381978,2.24425182 C499.805978,8.84105182 450.300378,24.0042518 398.250778,50.0666518 C373.809178,62.3050518 360.746778,70.2122518 339.591578,85.5770518 L323.333978,97.3850518 L247.140378,97.3850518 C165.345178,97.3850518 163.260378,97.5754518 157.660378,105.572252 C154.594778,109.948252 154.252378,122.642652 157.101978,126.258652 C163.469978,134.340252 161.877978,134.185052 238.658778,134.185052 C316.695578,134.185052 318.345178,134.357852 324.089178,143.125852 C325.677978,145.549852 326.978778,150.260252 326.978778,153.591452 C326.978778,161.033052 320.405978,168.634652 311.941978,170.986652 C308.485978,171.946652 268.241178,172.573852 209.450778,172.585052 C148.069978,172.596252 110.481178,173.205852 106.722778,174.249052 C90.3147776,178.805852 89.7115776,202.543452 105.876378,207.559452 C109.228378,208.599452 174.132378,209.074652 290.250778,208.906652 L469.450778,208.650652 L470.250778,232.617052 L471.050778,256.585052 L531.050778,256.663452 C564.050778,256.706652 591.231578,257.245852 591.450778,257.863452 C591.669978,258.479452 591.850778,267.265052 591.850778,277.385052 L591.850778,295.785052 L513.492378,295.785052 L435.133978,295.785052 L434.692378,271.385052 L434.250778,246.985052 L312.745178,246.642652 C229.490778,246.407452 190.599578,246.831452 189.209178,247.986652 C186.956378,249.855452 170.578778,277.540252 164.090778,290.444252 L159.938778,298.705052 L177.383578,299.244252 C197.197978,299.858652 201.575578,301.812252 206.829978,312.388252 C209.482778,317.725852 209.569178,319.013852 207.628378,324.113052 C206.429978,327.263452 203.417178,331.359452 200.935578,333.213852 C196.581978,336.466652 194.305178,336.613852 136.137178,337.385052 C80.3275776,338.125852 75.5179776,338.410652 71.3691776,341.221852 C66.3419776,344.629852 62.2507776,351.522652 62.2507776,356.585052 C62.2507776,362.010652 66.8171776,369.289052 72.3291776,372.649052 C77.2443776,375.647452 80.9915776,375.773852 165.204378,375.778652 C252.217178,375.785052 252.997978,375.813852 257.749978,379.197852 C263.508378,383.298652 279.805978,388.585052 286.687578,388.585052 C296.893978,388.585052 310.466778,383.452252 317.201178,377.044252 C325.722778,368.938652 330.045978,369.300252 330.777178,378.185052 C331.847578,391.196252 325.089178,403.447452 313.609178,409.303452 C308.106778,412.111452 301.090778,412.316252 191.810778,412.861852 C87.5707776,413.383452 75.3563776,413.709852 70.9627776,416.093852 C58.4731776,422.868252 59.6491776,442.061852 72.9419776,448.401052 C77.5995776,450.623452 85.9979776,450.985052 132.858778,450.985052 C192.564378,450.985052 193.178778,451.074652 198.833178,460.649052 C203.284378,468.181852 202.253978,476.101852 196.010778,482.345052 C193.018778,485.337052 188.879578,487.834652 186.810778,487.893852 C181.881178,488.037852 128.841178,488.761052 97.6907776,489.109852 L73.1307776,489.385052 L67.6907776,494.825052 C61.4795776,501.036252 60.4795776,508.519452 64.7563776,516.789852 C69.5403776,526.039452 70.8907776,526.185052 152.199578,526.191452 C222.701978,526.196252 226.495578,526.346652 231.348378,529.305052 C237.781978,533.228252 240.244378,537.804252 240.135578,545.637852 C240.021978,553.865052 234.876378,560.837852 227.381978,562.919452 C223.713178,563.938652 193.369178,564.572252 147.850778,564.581852 C77.7291776,564.596252 74.0091776,564.745052 69.1371776,567.714652 C59.9195776,573.335452 60.2219776,586.685852 69.7067776,592.900252 C73.9275776,595.665052 96.0891776,595.785052 603.274778,595.785052 L1132.44118,595.785052 L1137.34518,591.085852 C1143.66838,585.028252 1144.08758,576.500252 1138.39158,569.874652 L1134.53078,565.385052 L1057.19158,564.585052 C970.735578,563.690652 974.261978,564.185052 968.553178,552.154652 C966.084378,546.949852 966.025178,545.612252 968.015578,539.900252 C969.412378,535.895452 972.290778,532.117852 975.687578,529.837852 L981.124378,526.185052 L1054.53878,526.185052 C1135.15478,526.185052 1136.56598,526.033052 1141.34518,516.789852 C1145.33398,509.074652 1144.56278,501.433052 1139.18518,495.410652 L1134.51958,490.185052 L1084.38518,489.385052 C1038.65398,488.655452 1033.80598,488.316252 1029.18678,485.521052 C1020.73238,480.404252 1018.18198,470.001052 1023.06678,460.553052 C1027.46038,452.057052 1028.76438,451.847452 1082.54838,450.985052 L1132.44758,450.185052 L1137.32918,445.505052 C1143.49878,439.589852 1145.15478,431.676252 1141.72598,424.485852 C1136.42358,413.367452 1143.74038,414.023452 1014.73878,413.089052 L898.250778,412.245852 L890.151578,408.641052 C884.199578,405.993052 880.719578,403.025052 877.025178,397.447452 C872.066778,389.962652 869.012378,378.121052 870.821978,373.404252 C872.271578,369.626652 878.895578,370.559452 883.172378,375.143452 C897.089178,390.063452 924.073178,392.457052 943.007578,380.449052 L950.361178,375.785052 L1039.00278,375.785052 C1092.71318,375.785052 1129.25878,375.170652 1131.74518,374.225052 C1136.89718,372.266652 1142.23958,363.693852 1142.23958,357.385052 C1142.23958,351.569052 1137.36598,343.156252 1132.33718,340.287452 C1129.54678,338.695452 1114.00438,337.991452 1068.36438,337.385052 C1010.36918,336.615452 1007.90678,336.458652 1003.56438,333.239452 C1001.08118,331.401052 998.060378,327.081052 996.849178,323.639452 C994.940378,318.215452 994.977178,316.604252 997.116378,311.509852 C1001.18358,301.821852 1005.83958,299.897052 1027.40118,298.985052 L1046.30678,298.185052 L1040.56918,286.225052 C1030.95638,266.188252 1019.19798,247.879452 1015.34518,246.948252 C1013.42358,246.484252 957.490778,246.301852 891.050778,246.545052 L770.250778,246.985052 L770.716378,271.385052 L771.180378,295.785052 L692.716378,295.785052 L614.250778,295.785052 L614.250778,276.839452 L614.250778,257.895452 L649.050778,256.844252 C668.189978,256.265052 695.530778,255.791452 709.807578,255.788252 L735.765978,255.785052 L736.207578,232.185052 L736.650778,208.585052 L918.777178,208.585052 L1100.90198,208.585052 L1105.54358,203.397852 C1111.57078,196.658652 1112.63158,191.951452 1109.70038,184.937052 C1104.64438,172.833052 1110.63638,173.479452 995.124378,172.585052 C900.468378,171.852252 891.420378,171.549852 886.698778,168.969052 C880.252378,165.445852 878.250778,161.772252 878.250778,153.466652 C878.250778,148.265052 879.362778,145.724252 883.725978,140.961052 L889.201178,134.985052 L964.125978,134.185052 C1043.09558,133.341852 1043.31318,133.319452 1048.56918,125.817052 C1053.79798,118.349852 1050.11958,106.097052 1040.97238,100.521052 C1036.08438,97.5386518 1032.41078,97.3962518 960.353178,97.3914518 L884.857178,97.3850518 L871.553178,87.8298518 C838.316378,63.9530518 797.247578,42.0778518 756.959578,26.7914518 C728.069978,15.8282518 681.537178,4.88905182 649.113178,1.43785182 C628.121178,-0.795748181 575.849178,-0.350948181 554.381978,2.24425182 M262.890778,27.6250518 C258.431578,32.0842518 257.450778,34.2762518 257.450778,39.7850518 C257.450778,45.2938518 258.431578,47.4858518 262.890778,51.9450518 L268.330778,57.3850518 L297.967578,57.3850518 C327.433178,57.3850518 327.633178,57.3610518 332.473178,53.2890518 C338.644378,48.0970518 340.271578,40.4426518 336.773978,33.0698518 C332.077978,23.1754518 328.429978,22.1850518 296.644378,22.1850518 L268.330778,22.1850518 L262.890778,27.6250518 M876.271578,24.6890518 C871.466778,27.2970518 867.050778,34.5258518 867.050778,39.7850518 C867.050778,44.4810518 871.162778,51.9210518 875.397978,54.8874518 C880.591578,58.5258518 927.418778,58.5178518 934.455578,54.8794518 C942.754778,50.5866518 945.746778,37.5194518 940.127578,30.1114518 C934.684378,22.9370518 931.357978,22.1818518 905.493978,22.2490518 C886.649178,22.2970518 879.593178,22.8874518 876.271578,24.6890518 M533.017178,44.0554518 C530.548378,45.0490518 526.250778,53.0346518 526.250778,56.6282518 C526.250778,60.6106518 535.095578,68.5850518 539.511578,68.5850518 C541.660378,68.5850518 545.316378,67.0922518 547.634778,65.2682518 C553.186778,60.9018518 553.554778,51.0970518 548.348378,46.2474518 C545.044378,43.1674518 537.797978,42.1322518 533.017178,44.0554518 M442.911578,78.6362518 C435.489178,84.3354518 434.922778,92.7034518 441.514778,99.2954518 C445.570778,103.351452 447.215578,103.991452 451.409178,103.153052 C458.959578,101.642652 462.250778,97.8522518 462.250778,90.6650518 C462.250778,79.8314518 450.706778,72.6506518 442.911578,78.6362518 M754.517978,79.2522518 C753.930778,79.8378518 753.450778,82.0346518 753.450778,84.1306518 C753.450778,92.9946518 744.092378,103.524252 733.090778,107.041052 C724.129178,109.905052 723.825178,111.031452 731.399578,113.297052 C735.167578,114.423452 740.169178,116.709852 742.513178,118.377052 C747.013978,121.575452 755.050778,136.013852 755.050778,140.898652 C755.050778,142.485852 755.770778,143.785052 756.650778,143.785052 C757.530778,143.785052 758.257178,142.524252 758.266778,140.985052 C758.295578,135.738652 765.866778,121.876252 770.465178,118.647452 C772.986778,116.877852 777.757978,114.551452 781.065178,113.477852 C787.836378,111.282652 787.693978,109.332252 780.652378,107.785052 C773.181978,106.145052 761.882778,94.1162518 759.711578,85.4938518 C757.930778,78.4234518 756.756378,77.0122518 754.517978,79.2522518 M588.537178,109.172252 C572.649178,113.457052 560.589978,123.530652 552.298778,139.444252 C548.431578,146.865052 547.948378,149.548252 547.901978,163.785052 C547.855578,178.119452 548.316378,180.732252 552.321178,188.889052 C558.097178,200.649052 571.434778,212.949852 582.631578,216.842652 C588.249178,218.794652 595.311578,219.729052 603.850778,219.649052 C630.041178,219.402652 649.316378,204.324252 656.748378,178.268252 C668.668378,136.471452 630.538778,97.8474518 588.537178,109.172252 M425.751578,132.279452 C421.801178,132.871452 415.866778,141.044252 415.85717,145.908252 C415.847578,150.223452 424.525978,158.185052 429.237978,158.185052 C435.740378,158.185052 442.090778,151.607452 442.090778,144.871452 C442.090778,135.703452 435.709978,130.785052 425.751578,132.279452 M591.882778,141.697052 C575.321178,150.285852 574.625178,173.836252 590.636378,183.887452 C594.759578,186.476252 597.823578,187.034652 605.276378,186.554652 C613.900378,185.999452 615.217178,185.394652 620.770778,179.441052 C628.797978,170.834652 630.117978,163.826652 625.505178,154.298652 C619.333978,141.548252 603.565978,135.639452 591.882778,141.697052 M63.2667776,255.901852 C57.4891776,260.445852 57.3483776,270.228252 62.9787776,275.857052 C66.6683776,279.548252 67.9611776,279.785052 84.3627776,279.785052 C99.3499776,279.785052 102.389978,279.335452 105.855578,276.610652 C113.573978,270.538652 112.801178,258.189852 104.466778,254.393052 C102.285978,253.397852 93.0715776,252.585052 83.9915776,252.585052 C69.7115776,252.585052 66.9131776,253.033052 63.2667776,255.901852 M1098.86518,255.613852 C1093.22038,260.185052 1093.59158,270.807452 1099.57558,275.954652 C1103.67958,279.484252 1105.38678,279.785052 1121.32118,279.785052 C1137.87318,279.785052 1138.79478,279.604252 1142.83318,275.567452 C1148.42198,269.978652 1148.54358,261.933852 1143.12278,256.513052 C1139.41238,252.801052 1138.19158,252.585052 1120.90038,252.585052 C1105.33238,252.585052 1102.04758,253.036252 1098.86518,255.613852 M272.570778,312.436252 C262.341978,316.892252 254.372378,331.994652 256.538778,342.821852 C259.100378,355.636252 270.817178,364.585052 285.031578,364.585052 C300.922778,364.585052 311.850778,353.500252 311.850778,337.385052 C311.850778,326.892252 308.029978,319.789852 299.175578,313.823452 C292.932378,309.615452 280.530778,308.969052 272.570778,312.436252 M902.087578,313.797852 C893.981978,319.185052 889.090778,329.786652 889.882778,340.250652 C890.599578,349.709852 893.986778,355.356252 902.397978,361.124252 C909.786778,366.189852 926.058778,365.618652 933.922778,360.018652 C944.844378,352.242652 948.564378,336.161052 942.103578,324.665052 C934.426778,311.005852 914.452378,305.581852 902.087578,313.797852 M401.050778,314.585052 C361.669978,314.823452 329.450778,315.602652 329.450778,316.316252 C329.450778,317.031452 330.626778,321.066652 332.065178,325.285852 C333.948378,330.813852 334.412378,335.813852 333.724378,343.172252 L332.770778,353.385052 L412.220378,353.385052 L491.669978,353.385052 L547.761178,409.349852 L603.850778,465.314652 L659.903578,409.349852 L715.954778,353.385052 L793.274778,353.385052 C865.473178,353.385052 870.524378,353.204252 869.546778,350.657052 C866.284378,342.157852 867.482778,328.049052 872.437978,316.585052 C873.354778,314.465052 860.857178,314.185052 765.364378,314.185052 L657.252378,314.185052 L641.505178,328.585052 L625.756378,342.985052 L637.116378,354.537052 L648.474778,366.089052 L627.039578,387.737052 C615.249178,399.642652 605.209178,409.364252 604.727578,409.340252 C604.244378,409.314652 593.796378,399.589852 581.508378,387.727452 L559.167578,366.161052 L569.108378,356.130652 C574.577178,350.612252 579.050778,345.303452 579.050778,344.330652 C579.050778,343.359452 572.183578,335.997852 563.789978,327.973852 L548.529178,313.385052 L510.589978,313.767452 C489.722778,313.978652 440.431578,314.346652 401.050778,314.585052 M361.450778,427.953052 C350.460378,430.895452 342.687578,435.959452 335.274778,445.007452 C325.103578,457.420252 322.253977,465.732252 322.253977,482.985052 C322.253977,496.620252 322.737178,499.138652 326.943578,507.449052 C338.140378,529.569052 361.041178,541.191452 385.628378,537.233052 C397.682778,535.290652 405.180378,531.569052 413.207578,523.541852 C420.522778,516.226652 424.991578,508.021852 426.375578,499.365852 C427.353178,493.249052 427.223578,493.020252 422.217178,492.018652 C419.375578,491.450652 413.546778,490.985052 409.263578,490.985052 C402.666778,490.985052 400.836378,491.703452 397.292378,495.679452 C389.530778,504.389852 375.420378,507.727452 366.297178,503.009052 C352.711578,495.983452 349.677978,478.015452 360.077978,466.170652 C369.340378,455.621852 384.549978,455.260252 394.226778,465.359452 L398.849178,470.185052 L462.149978,470.157852 L525.450778,470.129052 L564.223578,509.757852 L602.996378,549.385052 L642.172378,509.785052 L681.348378,470.185052 L743.205978,470.185052 L805.063578,470.185052 L811.071578,464.757852 C821.929178,454.946652 835.900378,455.505052 846.229978,466.164252 C850.610778,470.682652 851.701978,473.213852 852.257178,480.133852 C853.063578,490.172252 848.932378,497.610652 839.876378,502.421852 C829.089178,508.154652 813.743578,504.836252 808.281178,495.591452 C805.612378,491.073052 805.293978,490.985052 791.505178,490.985052 L777.450778,490.985052 L777.465178,496.985052 C777.497178,509.711452 791.012378,526.247452 807.575578,533.831452 C819.860378,539.455452 839.268378,539.351452 851.845978,533.593052 C863.913178,528.068252 875.279578,516.300252 879.956378,504.490652 C885.474778,490.553052 885.324378,471.100252 879.604378,458.985052 C866.621978,431.485852 840.113178,420.125852 808.220378,428.393052 C795.924378,431.580252 791.186778,431.785052 729.633178,431.785052 L664.130778,431.785052 L633.841178,463.039452 L603.553178,494.295452 L573.524378,463.039452 L543.493978,431.785052 L474.473178,431.732252 C410.404378,431.684252 404.818778,431.458652 396.650778,428.585052 C386.237978,424.922652 373.612378,424.695452 361.450778,427.953052 M957.593178,470.308252 C955.314778,473.015452 953.450778,476.663452 953.450778,478.412252 C953.450778,487.007452 963.031578,493.540252 971.372378,490.633052 C980.271578,487.530652 982.447578,475.341852 975.212378,469.117852 C969.058778,463.825052 962.685978,464.255452 957.593178,470.308252 M247.727578,492.461852 C235.495578,504.693852 250.855578,522.351452 264.434778,511.668252 C270.385178,506.988252 270.377178,497.231452 264.417178,491.708252 C258.801178,486.505052 253.442778,486.746652 247.727578,492.461852 M85.6987776,631.511452 C82.3611776,635.197852 82.3035776,640.410652 85.5643776,643.671452 C87.8411776,645.946652 137.151578,646.185052 604.409178,646.185052 C1069.13878,646.185052 1121.09398,645.935452 1124.29398,643.693852 C1128.87478,640.487452 1128.87478,634.282652 1124.29398,631.076252 C1121.09398,628.834652 1069.15158,628.585052 604.541978,628.585052 C106.492378,628.585052 88.2539776,628.687452 85.6987776,631.511452 M408.162955,678.624397 C464.982228,678.626829 529.888266,678.64934 603.850778,678.689052 L1159.05078,678.985052 L1168.26998,682.706652 C1179.51638,687.247452 1191.43158,698.433052 1197.69398,710.327452 L1202.25078,718.985052 L1202.25078,952.650652 L1196.97078,963.377052 C1189.97878,977.580252 1176.38358,988.508252 1160.65078,992.570652 C1153.64598,994.378652 62.0507776,994.948252 49.6843776,993.149852 C44.0939776,992.335452 36.1595776,989.967452 32.0523776,987.887452 C22.2715776,982.930652 10.2987776,969.969052 4.9387776,958.533852 L0.6507776,949.385052 L0.1595776,842.185052 C0.0722656,823.149676 0.01066304,807.124431 0.0004590144,793.573448 L-6.62072187e-14,786.627612 C0.0411136,726.889244 1.3208576,719.850012 6.5163776,709.665052 C13.4571776,696.058652 27.7499776,684.042652 41.3723776,680.359452 C45.9926176,679.110108 126.718358,678.635487 388.443298,678.624377 Z M1148.32487,801.123204 L1135.52487,801.123204 C1131.10659,801.123204 1127.52487,804.704926 1127.52487,809.123204 L1127.52487,914.723204 C1127.52487,919.141482 1131.10659,922.723204 1135.52487,922.723204 L1148.32487,922.723204 C1152.74315,922.723204 1156.32487,919.141482 1156.32487,914.723204 L1156.32487,809.123204 C1156.32487,804.704926 1152.74315,801.123204 1148.32487,801.123204 Z M58.6507776,917.785052 C58.4315776,918.445852 64.5403776,919.193052 72.2299776,919.447452 L86.2075776,919.908252 L86.6299776,865.983452 L87.0507776,812.058652 L121.053978,863.122652 C157.255578,917.484252 159.513178,920.732252 160.364378,919.668252 C160.665178,919.292252 176.692378,895.225052 195.980378,866.185052 L231.050778,813.385052 L231.471578,866.585052 L231.893978,919.785052 L246.271578,919.785052 L260.650778,919.785052 L260.777178,889.785052 C260.903578,860.340252 260.945178,859.972252 263.105178,869.919452 C269.847578,900.985052 296.516378,921.159452 328.610778,919.474652 C351.900378,918.252252 369.911578,905.842652 380.954778,883.410652 C385.881178,873.402652 386.250778,871.533852 386.250778,856.618652 C386.250778,842.548252 385.722778,839.458652 381.937178,831.380252 C367.212378,799.959452 332.684378,786.037852 299.900378,798.303452 C287.500378,802.943452 274.117978,816.201052 266.909978,830.985052 L261.450778,842.185052 L261.028378,792.985052 L260.604378,743.785052 L249.004378,743.785052 L237.402778,743.785052 L228.653978,757.785052 C223.841178,765.485852 206.282778,792.527452 189.636378,817.881052 L159.367578,863.975452 L149.871578,849.081052 C144.649178,840.887452 126.937178,813.847452 110.513178,788.988252 L80.6507776,743.793052 L69.8507776,743.788252 L59.0507776,743.785052 L59.0507776,830.185052 C59.0507776,877.705052 58.8699776,917.124252 58.6507776,917.785052 Z M673.450778,793.385052 L659.050778,793.385052 C651.130778,793.385052 644.650778,793.997852 644.650778,794.748252 C644.650778,797.898652 667.385178,822.185052 670.335578,822.185052 C673.287578,822.185052 673.450778,823.473052 673.450778,846.817052 C673.450778,878.033052 676.277978,888.901852 687.522778,900.924252 C701.085978,915.425052 712.210778,919.759452 737.807578,920.519452 C750.610778,920.898652 753.481178,920.573852 752.809178,918.820252 C752.351578,917.626652 747.900378,911.236252 742.919578,904.618652 L733.863578,892.585052 L726.001178,892.585052 C716.429978,892.585052 711.380378,889.541852 706.372378,880.757852 C703.010778,874.858652 702.529178,871.519452 701.681178,848.185052 L700.737178,822.185052 L723.893978,822.185052 L747.050778,822.185052 L747.050778,807.785052 L747.050778,793.385052 L723.850778,793.385052 L700.650778,793.385052 L700.650778,768.585052 L700.650778,743.785052 L687.050778,743.785052 L673.450778,743.785052 L673.450778,768.585052 L673.450778,793.385052 Z M1001.45078,919.785052 L1015.05078,919.785052 L1028.65078,919.785052 L1028.65078,879.221852 C1028.65078,839.789852 1028.75158,838.511452 1032.25078,833.369052 C1037.47158,825.698652 1043.30998,821.943452 1051.44118,821.026652 C1060.92758,819.957852 1068.73398,823.735452 1073.10358,831.508252 C1076.19638,837.012252 1076.57398,840.962652 1077.61238,878.650652 L1078.74518,919.785052 L1092.09718,919.785052 L1105.45078,919.785052 L1105.45078,878.353052 C1105.45078,840.865052 1105.13238,835.893852 1102.11158,826.109852 C1095.52118,804.775452 1076.29718,791.948252 1053.63798,793.767452 C1048.21558,794.202652 1040.60118,796.093852 1036.71478,797.972252 C1032.82838,799.849052 1029.42518,801.385052 1029.14998,801.385052 C1028.87478,801.385052 1028.65078,788.425052 1028.65078,772.585052 L1028.65078,743.785052 L1015.05078,743.785052 L1001.45078,743.785052 L1001.45078,831.785052 L1001.45078,919.785052 Z M1123.05078,747.381852 C1117.49398,749.650652 1117.48118,749.677852 1121.45078,750.887452 C1128.35318,752.989852 1136.90198,759.701852 1139.99958,765.453852 C1143.50998,771.970652 1144.76598,772.332252 1146.05398,767.197852 C1147.29718,762.244252 1156.29398,753.521052 1161.41718,752.301852 C1168.43158,750.633052 1168.31798,749.925852 1160.30038,745.346652 C1155.92918,742.849052 1150.55158,737.978652 1148.13558,734.327452 C1145.75318,730.729052 1143.54358,727.785052 1143.22198,727.785052 C1142.90198,727.785052 1141.72598,729.988252 1140.61078,732.682652 C1138.33398,738.178652 1131.42678,743.959452 1123.05078,747.381852 Z M503.813978,847.319452 C501.517978,858.994652 503.658778,874.801052 508.938778,885.149852 C514.396378,895.847452 528.895578,909.743452 540.554778,915.449052 C550.594778,920.362652 551.884378,920.585052 570.250778,920.585052 C588.204378,920.585052 590.074778,920.282652 599.050778,915.916252 C608.681178,911.233052 630.249178,891.517852 630.252378,887.396252 C630.253978,884.221852 599.442778,885.652252 589.450778,889.290652 C568.532378,896.906652 554.810778,894.425052 540.889178,880.508252 C536.181978,875.801052 532.641178,871.013852 533.023578,869.868252 C533.573978,868.213852 546.797978,867.698652 597.285978,867.365852 L660.853978,866.948252 L659.745178,863.365852 C655.805978,850.645852 637.927578,824.948252 624.065178,812.081052 C608.689178,797.809052 584.060378,789.833052 564.650778,792.841052 C532.073178,797.889052 509.575578,818.034652 503.813978,847.319452 Z M418.873178,802.345052 C415.970778,804.972252 415.850778,804.881052 415.850778,800.033052 L415.850778,794.985052 L403.850778,794.985052 L391.850778,794.985052 L391.850778,857.385052 L391.850778,919.785052 L405.309978,919.785052 L418.767578,919.785052 L419.309978,879.385052 C419.834778,840.228252 419.965978,838.799452 423.612378,832.935452 C430.868378,821.263452 447.001178,817.127452 457.613978,824.217052 C468.041178,831.183452 468.645978,834.202652 468.647578,879.385052 L468.650778,919.785052 L482.319578,919.785052 L495.989978,919.785052 L495.519578,873.785052 C495.061978,828.829852 494.962778,827.605852 491.180378,819.921052 C480.260378,797.732252 453.098778,787.421852 429.673178,796.572252 C425.394778,798.244252 420.535578,800.841052 418.873178,802.345052 Z M769.450778,808.818652 C769.450778,809.941852 772.802778,815.028252 776.898778,820.122652 C780.996378,825.217052 784.493978,829.583452 784.671578,829.825052 C784.850778,830.066652 789.597978,828.087452 795.223578,825.425052 C803.399578,821.557852 807.577178,820.586652 816.055578,820.586652 C821.887578,820.585052 829.162778,821.631452 832.223578,822.909852 C837.532378,825.127452 847.850778,835.151452 847.850778,838.089052 C847.850778,838.855452 842.210778,839.095452 835.316378,838.623452 C803.127578,836.417052 775.516378,848.967452 769.676378,868.460252 C766.738778,878.269852 767.473178,889.317852 771.653978,898.185052 C778.985178,913.730652 790.636378,920.329052 812.180378,921.137052 C828.121178,921.733852 839.338778,919.164252 846.959578,913.170652 L851.050778,909.953052 L851.050778,914.868252 L851.050778,919.785052 L864.725978,919.785052 L878.399578,919.785052 L877.925978,877.785052 L877.450778,835.785052 L872.927578,825.997852 C867.281178,813.778652 857.885978,804.453852 845.450778,798.725852 C837.369178,795.002652 833.321178,794.228252 819.850778,793.828252 C806.429978,793.429852 802.045978,793.962652 792.650778,797.133852 C777.698778,802.180252 769.450778,806.335452 769.450778,808.818652 Z M896.239578,836.873052 C897.226778,847.146652 903.937178,856.804252 913.508378,861.730652 C917.484378,863.775452 928.951578,867.604252 938.991578,870.239452 C958.770778,875.428252 963.468378,878.220252 962.725978,884.343452 C961.031578,898.321052 932.783578,898.029852 914.181978,883.841052 L909.137178,879.993052 L900.557978,888.677852 L891.980378,897.364252 L898.316378,903.863452 C908.553178,914.367452 921.906778,920.029852 938.695578,920.988252 C955.412378,921.940252 966.973978,919.189852 977.109978,911.849052 C995.193178,898.748252 995.578778,872.137052 977.897178,857.484252 C972.362778,852.898652 959.436378,848.012252 939.660378,843.033052 C925.487578,839.465052 920.535578,830.461852 929.050778,823.748252 C932.799578,820.793052 935.039578,820.367452 944.189978,820.881052 C953.153178,821.383452 956.135578,822.333852 962.236378,826.634652 C966.255578,829.466652 970.228378,831.785052 971.065178,831.785052 C972.689178,831.785052 985.289178,818.700252 987.687578,814.524252 C989.583578,811.223452 983.220378,805.909852 969.477978,799.313052 C960.887578,795.189852 956.765978,794.244252 945.477978,793.802652 C933.812378,793.348252 930.489178,793.844252 922.394778,797.253852 C904.277978,804.882652 894.578778,819.577052 896.239578,836.873052 Z M549.453978,826.098652 C542.693978,830.060252 534.250778,838.618652 534.250778,841.508252 C534.250778,842.370652 550.866778,842.985052 574.250778,842.985052 C596.250778,842.985052 614.250778,842.405852 614.250778,841.698652 C614.250778,840.055452 605.290778,831.661852 599.050778,827.460252 C589.919578,821.313052 574.901978,818.487452 563.285978,820.730652 C559.453978,821.469852 553.229978,823.885852 549.453978,826.098652 Z M310.985178,887.977052 C324.660378,894.189852 340.273178,890.341852 350.669978,878.197852 C361.428378,865.626652 361.762778,850.700252 351.618778,835.701852 C343.314778,823.423452 323.057178,818.620252 308.977178,825.589852 C284.255578,837.826652 285.497178,876.401052 310.985178,887.977052 Z M797.431578,886.146652 C804.522778,899.860252 831.004378,898.233052 845.277978,883.205852 C848.751578,879.549852 850.100378,876.321052 850.682778,870.260252 L851.457178,862.185052 L835.653978,862.292252 C826.962778,862.351452 816.956378,863.306652 813.417178,864.415452 C798.677978,869.034652 792.748378,877.092252 797.431578,886.146652 Z" id="Shape"></path>
            </g>
            <text id="IMAGINE" font-family="MadimiOne-Regular, Madimi One" font-size="89.1075957" font-weight="normal" letter-spacing="126.4">
                <tspan x="40.8798882" y="1094.3232">IMAGINE</tspan>
            </text>
        </g>
    </g>
</svg>